<svg width="480" height="308" xmlns="http://www.w3.org/2000/svg"><g fill="none" fill-rule="evenodd"><path d="M684.262 336.46c.307-45.459-14.808-95.625-44.397-130.83-30.699-36.523-71.935-59.808-96.633-102.862-14.124-24.62-22.813-52.369-39.514-75.311-78.912-108.401-316.244-63.32-303.392 88.302.884 10.389 3.116 20.856 1.491 31.156-2.031 12.835-10.385 24.497-21.853 30.522-18.494 9.714-41.93 8.198-61.672 15.42-17.872 6.54-34.63 15.79-49.811 27.274-30.139 22.798-53.783 54.125-68.312 89.023-29.019 69.7-18.265 151.099 37.996 203.911 33.295 31.254 78.284 46.714 122.829 56.374 85.213 18.478 173.957 18.746 259.865 4.092 69.41-11.839 139.261-34.514 192.157-81.095 46.761-41.181 70.857-98.43 71.246-155.977z" fill="#E9F3FB" fill-rule="nonzero"/><g fill-rule="nonzero"><path d="M402.064 250.842l-17.352 12.119-1.708-1.558 52.372-77.609c1.35 33.804-21.67 57.354-33.312 67.048zM454.284 241.094l-68.105 23.203-.803-.732 19.14-13.369c10.971-5.99 30.465-14.026 49.768-9.102zM390.758 268.472l-3.838-3.5 67.564-23.018c-32.873 35.555-63.726 26.518-63.726 26.518zM370.688 250.17s-10.003-24.122 6.835-58.71l-3.973 61.32-2.862-2.61zM383.297 235.524l-7.706 19.119-1.21-1.104 4.068-62.813c9.852 16.92 7.535 34.725 4.848 44.798zM434.134 184.063l-51.783 76.743-6.068-5.533 7.721-19.148c6.677-13.211 23.011-40.075 50.13-52.062z" fill="#CCE9FF"/><path d="M455.09 241.302c-.202.22-.405.433-.606.652l-67.564 23.019-.741-.677 68.105-23.203c.268.068.538.137.806.209zM435.366 183.526c.003.09.002.179.01.269l-52.372 77.608-.653-.597 51.783-76.743a60.52 60.52 0 011.232-.537zM378.449 190.724l-4.069 62.814-.83-.758 3.973-61.32c.207-.43.404-.854.62-1.284.108.182.201.366.306.548z" fill="#D3D3D3"/><path d="M397.37 254.504c-1.163.844-1.83 1.274-1.83 1.274s.645-.48 1.83-1.274z" fill="#577BC2"/></g><g transform="translate(290.917 66)"><ellipse fill-opacity=".9" fill="#00143B" cx="53.391" cy="202.317" rx="53.391" ry="5.683"/><path d="M89.808 203.227l-74.036-.025c-6.83-.004-12.367-5.566-12.364-12.425l.064-178.362C3.476 5.556 9.016-.002 15.847 0L89.88.026c6.833.002 12.368 5.565 12.366 12.423l-.066 178.364c0 6.86-5.54 12.418-12.372 12.414z" fill="#001439" fill-rule="nonzero"/><path fill="#FFF" fill-rule="nonzero" d="M9.34 24.852h87.122v154.786H9.34z"/><g fill="#FFF" fill-rule="nonzero" opacity=".89"><path d="M53.349 9.705a1.493 1.493 0 11-.487-2.906c.396 0 .77.155 1.05.438.282.281.437.658.435 1.056a1.49 1.49 0 01-.998 1.412zm-.707-2.042a.665.665 0 00-.252 1.098.655.655 0 00.47.196.66.66 0 00.66-.664h.001a.656.656 0 00-.879-.629zM61.474 14.768c-.116.04-.24.06-.369.061h-.002l-16.491-.007c-.622.001-1.128-.51-1.128-1.135a1.128 1.128 0 011.13-1.131l16.491.005c.301 0 .585.117.8.333a1.139 1.139 0 01-.43 1.874zm-.37-.768c.17-.001.306-.137.305-.307a.303.303 0 00-.305-.305l-16.493-.005a.296.296 0 00-.214.09.308.308 0 00.216.522L61.106 14h-.002z"/></g><path d="M62.612 194.47a3.374 3.374 0 01-1.107.187l-17.424-.008a3.386 3.386 0 01-3.373-3.388v-.306a3.378 3.378 0 01.989-2.393 3.338 3.338 0 012.385-.993l17.426.008a3.384 3.384 0 013.372 3.388v.304a3.37 3.37 0 01-.99 2.395c-.365.368-.8.64-1.278.806z" fill="#FFF" fill-rule="nonzero"/></g><path d="M357.267 118.522h-100.59c-3.692 0-6.683 3.005-6.683 6.71V163.7c0 3.705 2.99 6.71 6.683 6.71h100.59c3.69 0 6.681-3.005 6.681-6.71v-38.468c0-3.705-2.991-6.71-6.681-6.71z" fill="#F2F2F2" fill-rule="nonzero" opacity=".8"/><path d="M375.887 176.81h-64.285c-3.692 0-6.683 3.004-6.683 6.71v13.013c0 3.705 2.99 6.71 6.683 6.71h64.288c3.691 0 6.682-3.005 6.682-6.71v-13.014c-.003-3.705-2.994-6.71-6.685-6.71zM375.887 209.275h-64.285c-3.692 0-6.683 3.005-6.683 6.71V229c0 3.706 2.99 6.71 6.683 6.71h64.288c3.691 0 6.682-3.004 6.682-6.71v-13.014c-.003-3.705-2.994-6.71-6.685-6.71z" fill="#F2F2F2" fill-rule="nonzero"/><text fill-rule="nonzero" font-family="Helvetica" font-size="4" fill="#0051EA" transform="translate(247.94 66)"><tspan x="83.967" y="43.529">VACANCY</tspan></text><path d="M355.213 116.461H254.623c-3.692 0-6.683 3.005-6.683 6.71v38.468c0 3.705 2.991 6.71 6.683 6.71h100.59c3.69 0 6.682-3.005 6.682-6.71V123.17c0-3.705-2.991-6.71-6.682-6.71z" fill="#34AC79"/><g><path d="M228.02 297.492s-.34 2.393-.384 2.753c-.042.36-3.798-.212-3.798-.212l-.302-2.85s4.016-.028 4.484.31zM254.929 297.492s-.343 2.393-.385 2.753c-.042.36-3.798-.212-3.798-.212l-.303-2.85s4.017-.028 4.486.31z" fill="#424773" fill-rule="nonzero"/><path d="M254.586 299.94s1.188 1.442 2.339 2.07c1.152.628 7.2 1.145 7.88 1.795.493.47-.506 2.36-7.23 2.183-4.778-.125-7.084.286-7.598-.49-.512-.774.741-5.72.741-5.72s1.07.438 3.868.161z" fill="#001437" fill-rule="nonzero"/><path d="M241.666 191.298s-.304 1.98-.025 2.923c.278.941-6.268 1.5-6.268 1.5s-.251-5.222-1.021-9.589c-.772-4.366 7.314 5.166 7.314 5.166z" fill="#EEA886" fill-rule="nonzero"/><path d="M222.96 286.088c.086-3.188 2.505-17.295 3.095-23.254.532-5.345 2.073-10.93 1.81-16.048-.157-3.055-.171-6.079.816-8.2-.211-.8.815-1.892.673-2.866 0 0 18.38-2.102 20.352 1.056 0 0 2.66 14.024 3.01 17.155.35 3.132.584 15.155.762 17.113.174 1.957 1.168 25.613 2.105 28.521h-6.19s-4.75-17.197-4.75-25.333c0-7.505-3.121-16.206-5.466-21.726-1.413 5.586-5.026 17.834-5.883 19.88-1.053 2.516-5.12 27.178-5.12 27.178l-4.84-.112c0 .001-.463-10.177-.374-13.364z" fill="#001437" fill-rule="nonzero"/><g transform="translate(230.785 175.002)" fill-rule="nonzero"><path d="M3.377 2.977S8.351.64 11.018 4.388c2.666 3.75 3.05 11.65.545 12.825-2.508 1.174-6.426.973-7.94-1.385C2.11 13.47.64 10.002.512 7.618.388 5.233 2.086 3.77 3.377 2.977z" fill="#EEA886"/><path d="M2.56 13.969s.486 3.585 2.435 3.14c6.22-1.419 4.197-6.146 4.997-6.501.798-.354.768-.845.768-.845l.574.72.877-.016s-.98-2.302.148-3.36c1.126-1.061-1.842-7.56-7.983-4.832 0 0-4.744 1.734-4.353 4.505.393 2.771 1.346 5.888 2.537 7.189z" fill="#001435"/><path d="M12.136 9.689c-.057-.478-1.081-1.94-1.69-.567-.606 1.377.312 3.42.958 3.324.65-.092.884-1.544.732-2.757z" fill="#EEA886"/><ellipse fill="#001437" transform="rotate(175.515 8.331 4.047)" cx="8.331" cy="4.047" rx="4.299" ry="3.722"/></g><path d="M227.19 238.503c-.474-2.373-.28-1.45-.335-2.552-.055-1.102 1.495-4.802 1.552-5.621.056-.82-.224-1.667-.224-1.978 0-.31.195-2.627.195-2.627.11-5.422-.251-8.503-.42-9.265-.167-.761-.56-2.343-.727-3.84-.167-1.498-.896-2.712-1.37-3.559-.476-.847-.756-.707-.756-.707-.449.735-1.623.988-1.875 1.13-.25.141-3.944 3.7-4.335 4.096-.393.395-.029.62.42.762.445.141.756 1.78.867 2.202.112.424 1.538 1.442 2.013 1.611.476.17.644 1.3.644 1.3l2.293 3.163c-2.994 3.192-5.4 3.955-5.4 3.955-1.483-1.722-6.014-8.587-6.014-8.587s-2.63-3.305-2.715-5.055c-.084-1.752 1.428-3.08 1.428-3.08 3.301-4.01 6.826-7.146 8.169-8.304 1.343-1.158 1.758-.32 1.898-.913.14-.594.982-1.219 1.235-1.247.25-.029 2.154-2.375 3.553-2.574 1.397-.197 3.693-.188 4.646-1.092.952-.903 2.769-2.41 2.769-2.41.005.01.013.016.019.022.042.22.076-.4.064-.316-.029.197 2.798 1.992 6.97 1.033 0 0 .112-.159.28-.39l.026-.006s.028.945.95 1.707c.924.762 1.512 0 1.512 0s1.677-.875 2.826-.706c1.147.169 1.706.988 1.819 1.073.11.084 2.518.452 2.825.367.307-.086 1.93-.847 1.93-.847l2.435-.623c-1.203-.592-1.009-1.158-1.009-1.158-.305.226-1.426.283-1.817-.198-.393-.48-3.189-2.711-3.189-2.711 2.182-2.062 3.005-4.542 3.005-4.542l-.458-.282c.056-.337.725-.374.725-.374s4.812 3.727 7.106 5.141c2.295 1.413 2.796 2.259 3.245 3.616.448 1.356-1.286 2.77-1.286 2.77s-1.456 1.186-3.86 3.274c-2.406 2.09-5.484 3.334-7.33 4.069-1.847.735-2.239 2.542-2.35 3.39-.112.847-.504 5.874-.504 5.874.671 2.033-.167 4.01-.167 4.01s.503 1.3.223 2.373c-.28 1.074.867 4.915 1.371 7.627.503 2.711 1.426 9.576 1.426 9.576l-.923.678" fill="#9387D3"/><path d="M225.421 223.047l-.41-.302c-1.15 1.207-2.206 2.057-3.07 2.641l.651.487c.001 0 2.488-1.852 2.83-2.826zm26.284-34.031l.228-.319c1.005-1.448 1.415-2.68 1.415-2.68l-.458-.282a.292.292 0 01.028-.08c-.71-.413-1.685-.942-2.12-1.004-.348.06-.478.465-.478.465s.194.091.439.166c-.12.831-.577 2.513-2.295 3.984l1.954 1.219c.499-.482.927-.983 1.287-1.47z" fill="#F5F5F5" fill-rule="nonzero"/><path d="M229.744 224.116a2.924 2.924 0 00-.933.345s.053 2.02-.474 2.205c-.493.173-1.827.495-3.289.182-1.045-.226-1.658-.977-1.923-1.39.75-.603 2.055-1.724 2.296-2.41l-.11-.082c.575-.08 1.902.11 2.194.05.31-.062 1.555-.44 2.425-.188.872.25.343 1.193-.186 1.288zm21.016-38.833c-.245-.075-.44-.166-.44-.166s.002-.01.007-.022c-.207-.085-.411-.186-.524-.285-.28-.251-2.798-2.952-2.798-2.952s-.56-.752-1.119-.691c-.56.063-1.491.157-1.491.157s-.872.565-.655 1.037c0 0 .116.218.775.007l.243-.244s.643-.088.87 0c.226.086.817.49.817.49s-.87.07-1.286.018c-.416-.053-1.356.052-1.477.087-.121.034-.469.086-.469.421 0 .332.07.421.661.508.59.087 1.492.176 1.492.176s.766.157 1.026.526l-1.443-.281-1.631-.21s-.87-.053-.886.597c-.017.649.347.649.503.719.155.07 1.894.456 1.894.456l.746.087.505.263-1.2.035-1.823-.386s-.869-.246-.94.333c-.069.578.191.772.643.912s1.946.808 1.946.808l1.476.561s.225.473.086.492c-.138.017-.78-.035-.973-.088-.19-.052-.764-.245-.868-.227-.103.016-1.078.017-1.18.245-.106.227-.194.526.277.825.468.297.589.245.782.28.189.035.224.316.988.262.766-.051 1.235 0 1.235 0s.606-.157.869-.421l.677-.683.494.243c1.63-1.45 2.073-3.076 2.19-3.89z" fill="#F1B99E" fill-rule="nonzero"/></g><path d="M228.971 306.198c0 1.469-1.34 1.802-2.996 1.802-1.652 0-2.994-.333-2.994-1.802v-3.54c0-1.468 1.342-2.658 2.994-2.658 1.655 0 2.996 1.19 2.996 2.657v3.541z" fill="#001439" fill-rule="nonzero"/><g fill="#D3D3D3" fill-rule="nonzero" opacity=".9"><path d="M316.66 185.897h55.248c.465 0 .83-.396.83-.89v-1.119c0-.495-.364-.888-.83-.888H316.66c-.458 0-.83.392-.83.888v1.12c0 .493.372.89.83.89zM371.911 188.473H316.66c-.46 0-.83.395-.83.887v1.121c0 .492.37.891.83.891H371.91c.46 0 .828-.4.828-.89v-1.122c0-.492-.368-.887-.828-.887zM371.908 194.101h-55.249c-.457 0-.828.399-.828.891v1.119c0 .491.37.889.829.889H371.908c.465 0 .83-.398.83-.89v-1.118c0-.492-.364-.891-.83-.891z"/></g><g fill="#FFF" fill-rule="nonzero"><path d="M338.975 139.78v1.93a1.54 1.54 0 01-1.546 1.535h-76.962a1.54 1.54 0 01-1.544-1.535v-1.93c0-.86.69-1.535 1.544-1.535h76.962c.855 0 1.546.674 1.546 1.534zM327.451 149.527v1.932c0 .85-.69 1.541-1.548 1.541h-65.436a1.54 1.54 0 01-1.544-1.541v-1.932c0-.848.688-1.532 1.544-1.532h65.436c.858 0 1.548.683 1.548 1.532zM349.776 130.533v1.932A1.54 1.54 0 01348.23 134h-87.764a1.54 1.54 0 01-1.544-1.535v-1.932a1.54 1.54 0 011.544-1.533h87.764a1.54 1.54 0 011.545 1.533z"/></g><g fill="#D3D3D3" fill-rule="nonzero"><path d="M363.335 221.737v1.207c0 .529-.41.96-.918.96h-45.67c-.507 0-.916-.431-.916-.96v-1.207c0-.537.41-.958.915-.958h45.671c.508 0 .918.42.918.958zM356.494 227.83v1.207c0 .532-.408.963-.917.963h-38.83c-.508 0-.916-.431-.916-.963v-1.208c0-.529.408-.956.915-.956h38.83c.51 0 .918.427.918.956zM369.744 215.958v1.207c0 .53-.41.96-.916.96h-52.082c-.506 0-.915-.43-.915-.96v-1.207c0-.528.41-.958.915-.958h52.082c.506 0 .916.43.916.958z"/></g></g></svg>
